<svg width="1600" height="497" viewBox="0 0 1600 497" fill="none" xmlns="http://www.w3.org/2000/svg">
<path d="M787.974 0.548069C785.798 1.00619 775.261 2.72416 764.495 4.44213C753.844 6.04556 744.911 7.53447 744.796 7.76353C744.452 7.99259 733.343 76.7113 732.312 84.843L731.51 90.9131H706.543H681.46V115.537V140.162H707.802H734.03L734.374 227.434C734.832 313.562 734.832 314.936 737.351 323.984C741.818 340.362 748.117 351.357 759.227 362.466C775.49 378.615 791.868 384.915 820.157 386.06C842.262 386.976 858.754 384.456 878.225 377.012C884.295 374.721 887.616 372.889 887.616 371.744C887.616 370.255 876.163 325.587 875.591 324.9C875.476 324.671 872.384 325.817 868.604 327.305C856.807 332.116 845.125 334.063 832.527 333.49C812.713 332.459 802.52 325.358 796.793 308.522C794.388 301.192 794.273 300.047 793.93 220.562L793.586 140.162H835.505H877.309V115.537V90.9131H835.505H793.701V45.7879C793.701 20.9346 793.357 0.319007 792.899 0.0899444C792.326 -0.139118 790.15 0.0899444 787.974 0.548069ZM145.225 85.3011C126.213 86.9046 104.567 94.3491 88.0744 105.23C83.3787 108.207 74.3307 116.11 67.917 122.638L56.1203 134.435V112.674V90.9131H28.0601H0V288.479V486.046H29.2054H58.4109V410.684V335.437L62.6485 340.591C69.2913 348.837 80.859 359.603 88.3035 364.757C98.7258 371.858 114.989 379.188 127.702 382.624C138.239 385.487 140.873 385.716 162.062 385.716C183.25 385.831 185.884 385.602 197.223 382.738C218.411 377.356 236.85 368.766 251.969 357.084C260.1 350.899 274.188 336.239 280.83 327.191C308.089 289.968 316.22 233.619 300.988 186.089C287.702 144.285 260.1 113.819 220.243 96.6397C206.958 90.9131 188.633 86.4464 175.805 85.6447C170.193 85.3011 163.207 84.9575 160.344 84.843C157.48 84.6139 150.723 84.843 145.225 85.3011ZM179.127 140.047C204.667 146.804 227.344 166.046 238.797 191.013C245.44 205.33 247.845 217.241 247.845 235.795C247.731 253.318 246.356 261.106 240.515 276.11C226.886 311.5 192.412 334.864 154.044 334.864C128.046 334.864 106.399 325.817 87.5018 306.919C72.8418 292.259 64.5956 277.141 60.587 257.785C50.6228 209.338 74.1016 161.006 116.02 143.941C134.345 136.497 159.427 134.893 179.127 140.047ZM490.193 85.4156C469.234 87.1336 454.345 91.1422 435.791 100.076C394.674 119.89 367.072 155.165 356.65 201.436C353.787 214.263 353.214 248.393 355.619 262.939C365.927 325.015 408.991 369.567 471.639 383.082C486.07 386.06 517.452 387.32 533.142 385.373C568.533 380.906 594.417 368.995 617.781 346.318C626.829 337.613 641.374 319.632 641.374 317.227C641.374 316.883 640.916 316.539 640.229 316.539C639.656 316.539 629.12 310.813 616.865 303.941C604.724 296.955 594.188 291.343 593.615 291.343C593.042 291.343 591.782 292.717 590.752 294.435C587.545 299.818 577.351 310.584 570.48 315.852C553.644 328.794 534.059 334.864 508.747 334.864C464.309 334.864 428.117 308.293 416.893 267.291C415.633 262.595 414.603 257.556 414.603 256.182V253.547H531.883H649.162L649.85 250.913C651.453 245.072 650.537 217.928 648.246 204.872C634.846 126.303 571.854 78.6583 490.193 85.4156ZM525.698 137.413C536.12 139.589 552.842 147.492 560.63 153.905C568.647 160.663 575.404 169.023 580.558 179.102C584.796 187.234 589.835 202.237 589.835 206.819C589.835 208.766 585.254 208.88 502.334 208.88H414.832L415.863 204.414C422.047 176.812 438.196 155.738 462.133 144.17C481.26 134.893 502.334 132.717 525.698 137.413ZM1046.24 85.8738C990.236 94.0055 943.737 131.915 926.557 183.454C921.059 200.29 919.57 209.224 918.883 231.786C918.196 256.64 919.8 269.009 925.984 287.792C946.256 348.15 1000.43 386.403 1065.83 386.403C1093.66 386.403 1117.71 379.646 1138.21 366.131C1146.11 360.863 1161 346.89 1165.35 340.591C1167.07 338.071 1169.02 336.01 1169.48 336.01C1170.05 336.01 1170.51 342.538 1170.51 350.555C1170.51 358.687 1170.85 368.651 1171.31 372.889L1172 380.677H1199.83H1227.77V235.795V90.9131H1199.83H1172L1171.08 112.56L1170.28 134.32L1163.98 126.876C1148.52 108.551 1126.76 95.3799 1100.87 88.3935C1093.77 86.561 1087.93 85.9883 1070.87 85.7592C1059.18 85.5302 1048.19 85.6447 1046.24 85.8738ZM1098.93 139.589C1109.58 142.452 1125.61 150.813 1134.09 157.799C1144.28 166.275 1152.18 176.239 1158.48 188.837C1166.73 205.33 1168.56 214.149 1168.56 235.795C1168.56 252.288 1168.33 255.151 1165.58 264.199C1152.18 308.179 1117.25 334.864 1072.81 334.864C1029.06 334.864 992.412 305.201 981.532 260.992C977.867 246.561 977.867 225.029 981.303 210.713C989.549 177.499 1010.97 152.76 1041.55 141.65C1055.52 136.611 1083.92 135.58 1098.93 139.589ZM1412.28 87.0191C1400.83 88.9661 1382.05 95.0363 1371.85 100.19C1330.16 121.035 1302.79 157.341 1293.4 203.955C1290.88 216.554 1290.54 249.882 1292.94 262.71C1300.96 307.262 1328.9 344.829 1369.33 365.444C1389.84 375.981 1407.36 380.562 1430.15 381.479C1475.5 383.426 1509.75 368.422 1537.92 334.292L1541.7 329.711L1541.02 346.318C1539.53 381.364 1535.06 398.315 1522.92 414.693C1512.84 428.322 1497.49 437.828 1476.65 443.325C1466.91 445.845 1463.02 446.303 1447.67 446.418C1437.25 446.418 1427.06 445.845 1423.05 445.043C1393.16 438.63 1367.85 423.855 1357.08 406.676C1355.02 403.354 1353.19 400.491 1353.07 400.262C1352.73 399.804 1309.21 426.26 1306.91 428.322C1303.14 431.758 1326.27 457.642 1342.88 468.637C1371.4 487.534 1404.95 496.353 1447.67 496.353C1479.17 496.353 1507.34 490.169 1530.71 478.257C1570.34 457.871 1593.82 421.221 1598.74 372.202C1599.54 363.841 1600 314.249 1600 225.258V90.9131H1571.94H1543.88L1543.65 98.5867C1543.65 102.939 1543.42 106.833 1543.31 107.52C1543.08 108.093 1542.96 114.277 1542.85 121.264L1542.73 133.862L1535.18 125.616C1517.31 105.802 1491.31 91.4858 1464.97 86.9046C1452.94 84.7285 1425.34 84.843 1412.28 87.0191ZM1470.58 139.589C1505.4 148.751 1531.28 176.468 1538.61 212.545C1541.25 225.029 1541.02 245.988 1538.27 257.556C1528.76 296.955 1496.35 325.358 1456.72 329.138C1408.5 333.719 1366.47 304.857 1354.22 258.701C1351.24 247.363 1351.24 218.615 1354.22 207.162C1357.08 196.167 1365.1 179.904 1371.74 171.658C1384.68 155.738 1404.72 143.254 1424.42 138.902C1436.79 136.267 1459.01 136.611 1470.58 139.589Z" fill="#1C4B4E"/>
</svg>
